# Blender 4.4.1
# www.blender.org
mtllib direction_gizmo_180.mtl
o euler_circle_180
v 0.491491 0.000000 -0.000000
v 0.456385 0.020269 -0.000000
v 0.456385 -0.020269 -0.000000
v 0.454079 0.000000 -0.188085
v 0.421644 0.020269 -0.174651
v 0.421644 -0.020269 -0.174651
v 0.347537 0.000000 -0.347537
v 0.322713 0.020269 -0.322713
v 0.322713 -0.020269 -0.322713
v 0.188086 0.000000 -0.454079
v 0.174651 0.020269 -0.421644
v 0.174651 -0.020269 -0.421644
v 0.000000 0.000000 -0.491491
v 0.000000 0.020269 -0.456385
v 0.000000 -0.020269 -0.456385
v -0.188086 0.000000 -0.454079
v -0.174651 0.020269 -0.421644
v -0.174651 -0.020269 -0.421644
v -0.347537 0.000000 -0.347537
v -0.322713 0.020269 -0.322713
v -0.322713 -0.020269 -0.322713
v -0.454079 0.000000 -0.188086
v -0.421644 0.020269 -0.174651
v -0.421644 -0.020269 -0.174651
v -0.491491 0.000000 -0.000000
v -0.456385 0.020269 -0.000000
v -0.456385 -0.020269 -0.000000
vn 0.4975 0.8618 -0.0990
vn -0.9808 -0.0000 0.1951
vn 0.4975 -0.8618 -0.0990
vn 0.4218 0.8618 -0.2818
vn -0.8315 -0.0000 0.5556
vn 0.4218 -0.8618 -0.2818
vn 0.2818 0.8618 -0.4218
vn -0.5556 -0.0000 0.8315
vn 0.2818 -0.8618 -0.4218
vn 0.0990 0.8618 -0.4975
vn -0.1951 -0.0000 0.9808
vn 0.0990 -0.8618 -0.4975
vn -0.0990 0.8618 -0.4975
vn 0.1951 -0.0000 0.9808
vn -0.0990 -0.8618 -0.4975
vn -0.2818 0.8618 -0.4218
vn 0.5556 -0.0000 0.8315
vn -0.2818 -0.8618 -0.4218
vn -0.4218 0.8618 -0.2818
vn 0.8315 -0.0000 0.5556
vn -0.4218 -0.8618 -0.2818
vn -0.4975 0.8618 -0.0990
vn 0.9808 -0.0000 0.1951
vn -0.4975 -0.8618 -0.0990
vn -0.0000 -0.0000 1.0000
vt 0.500000 0.666667
vt 0.562500 0.666667
vt 0.562500 1.000000
vt 0.500000 1.000000
vt 0.500000 0.000000
vt 0.562500 0.000000
vt 0.562500 0.333333
vt 0.500000 0.333333
vt 0.625000 0.666667
vt 0.625000 1.000000
vt 0.625000 0.000000
vt 0.625000 0.333333
vt 0.687500 0.666667
vt 0.687500 1.000000
vt 0.687500 0.000000
vt 0.687500 0.333333
vt 0.750000 0.666667
vt 0.750000 1.000000
vt 0.750000 0.000000
vt 0.750000 0.333333
vt 0.812500 0.666667
vt 0.812500 1.000000
vt 0.812500 0.000000
vt 0.812500 0.333333
vt 0.875000 0.666667
vt 0.875000 1.000000
vt 0.875000 0.000000
vt 0.875000 0.333333
vt 0.937500 0.666667
vt 0.937500 1.000000
vt 0.937500 0.000000
vt 0.937500 0.333333
vt 1.000000 0.666667
vt 1.000000 1.000000
vt 1.000000 0.000000
vt 1.000000 0.333333
s 0
usemtl mat_euler_circle_180
f 1/1/1 4/2/1 5/3/1 2/4/1
f 2/5/2 5/6/2 6/7/2 3/8/2
f 3/8/3 6/7/3 4/2/3 1/1/3
f 4/2/4 7/9/4 8/10/4 5/3/4
f 5/6/5 8/11/5 9/12/5 6/7/5
f 6/7/6 9/12/6 7/9/6 4/2/6
f 7/9/7 10/13/7 11/14/7 8/10/7
f 8/11/8 11/15/8 12/16/8 9/12/8
f 9/12/9 12/16/9 10/13/9 7/9/9
f 10/13/10 13/17/10 14/18/10 11/14/10
f 11/15/11 14/19/11 15/20/11 12/16/11
f 12/16/12 15/20/12 13/17/12 10/13/12
f 13/17/13 16/21/13 17/22/13 14/18/13
f 14/19/14 17/23/14 18/24/14 15/20/14
f 15/20/15 18/24/15 16/21/15 13/17/15
f 16/21/16 19/25/16 20/26/16 17/22/16
f 17/23/17 20/27/17 21/28/17 18/24/17
f 18/24/18 21/28/18 19/25/18 16/21/18
f 19/25/19 22/29/19 23/30/19 20/26/19
f 20/27/20 23/31/20 24/32/20 21/28/20
f 21/28/21 24/32/21 22/29/21 19/25/21
f 22/29/22 25/33/22 26/34/22 23/30/22
f 23/31/23 26/35/23 27/36/23 24/32/23
f 24/32/24 27/36/24 25/33/24 22/29/24
f 2/5/25 3/8/25 1/1/25
f 26/35/25 25/33/25 27/36/25
